<svg width="230" height="47" viewBox="0 0 230 47" fill="none" xmlns="http://www.w3.org/2000/svg">
<g filter="url(#filter0_d)">
<path d="m165.6 410.8h2.4c.9 0 1.3.5 1.1 1.2-.1.4-.4.8-.9 1 .1.6.1 1.1.3 1.7h-1.6l-.1-2.2h.3c.3 0 .6-.1.7-.4s-.1-.3-.4-.3h-.5l-.7 2.9h-1.4zm5.7 2 .6-.9.1.9zm-1.2 1.9.6-.9h1.4l.1.9h1.6c-.3-1.3-.5-2.6-.7-3.9h-1.8c-.9 1.3-1.8 2.6-2.8 3.9zm7.1 0c-.4 0-.9.1-1.1.1-1.2 0-2.3-.6-1.9-2s1.7-2 2.9-2c.3 0 .7.1 1 .1l-.1 1.1c-.3-.1-.6-.1-.9-.1-.9 0-1.3.6-1.4 1-.1.6.2.9.7.9s.9-.1 1.2-.1zm1.7-3.9h1.5l-1 3.9h-1.5zm2.3 0h1.8l.6 2.1.5-2.1h1.3l-1 3.9h-1.8l-.7-2.1-.5 2.1h-1.3zm8.6 1.6-.6 2.2c-.6.1-1.5.1-1.8.1-1.2 0-2.3-.6-1.9-2s1.7-2 2.9-2c.5 0 1 .1 1.4.1l-.2 1.1c-.4-.1-.8-.2-1.2-.2-.8 0-1.3.4-1.5 1.1-.1.6.1.9.6.9h.4l.1-.3h-.4l.3-1zm5.6 2.3h-3.4l1-3.9h3.4l-.3 1h-1.9l-.1.4h1.6l-.3 1h-1.6l-.1.4h1.9zm3.7-2.9c.5 0 .8.4.7 1s-.7.9-1.1.9-.8-.4-.7-.9c.1-.6.6-1 1.1-1zm1.5 1.9c.3-.2.6-.7.6-.9.4-1.4-.7-2-1.9-2s-2.6.6-2.9 2c-.4 1.4.7 2 1.9 2 .4 0 1.7-.1 2.5-.2l.4-1.1zm3.2-2.9-.5 2.1c-.1.4-.1.7.3.7s.6-.3.7-.7l.5-2.1h1.5l-.7 2.8c-.1.6-.9 1.2-2.3 1.2s-1.9-.6-1.7-1.2l.7-2.8zm3.3 0h1.5l-1 3.9h-1.5zm2.3 0h2.3c.5 0 1.1.4.8 1.3-.2.7-.9 1.2-1.7 1.2h-.3l-.1-.9h.2c.2 0 .4-.1.5-.3.1-.3-.1-.3-.3-.3h-.3l-.7 2.9h-1.4zm2.9 3.9 1-3.9h2l-.1 2.1 1-2.1h2l-1 3.9h-1.2l.6-2.6-1.2 2.6h-1.3l.1-2.6-.6 2.6zm9 0h-3.4l1-3.9h3.4l-.3 1h-1.9l-.1.4h1.6l-.3 1h-1.6l-.1.4h1.9zm1.8-3.9h1.8l.6 2.1.5-2.1h1.3l-1 3.9h-1.7l-.7-2.1-.5 2.1h-1.3zm4.6 0h3.9l-.3 1h-1.2l-.7 2.8h-1.5l.7-2.8h-1.2zm12.6-30c-.6 0-1.1-.5-1.1-1.1s.5-1.1 1.1-1.1 1.1.5 1.1 1.1-.5 1.1-1.1 1.1zm0 .2c.8 0 1.4-.6 1.4-1.4s-.6-1.4-1.4-1.4-1.4.6-1.4 1.4.7 1.4 1.4 1.4z"/>
<path d="m240.6 379.8c.3 0 .4-.1.4-.4 0-.2 0-.3-.2-.4-.1-.1-.3-.1-.4-.1h-.7v1.4h.3v-.6h.3l.3.6h.3zm-.6-.2v-.4h.4c.1 0 .3 0 .3.2s-.1.2-.3.2zm-3.7 8.7c-.1-.1-.1-.1-.2-.1h-2.5l1.4-6.6c0-.1 0-.2-.1-.2-.1-.1-.2-.1-.3 0l-8.9 4.4c-.1 0-.1.1-.1.2l-.5 2.3h-13.6c-.1 0-.1 0-.2.1l-1.6 2.2-.7-2.2c0-.1-.1-.2-.2-.2h-13.8c-.1 0-.1 0-.2.1l-1.7 2.3-.7-2.2c0-.1-.1-.2-.2-.2h-21.7c-.1 0-.2.1-.2.2l-.6 2.6c-.5-.7-1.2-1.6-1.5-1.9l7.3-10.2c.1-.1.1-.2 0-.3 0-.1-.1-.1-.2-.1h-12.5c-.1 0-.1 0-.2.1s-6 8.4-6.1 8.5c-.6.7-2 2.7-1.8 4.8.2 1.9 1.2 3.1 1.5 3.6l.2.2.7.9-3.2 4.3c0 .1-.1.1 0 .2l4.1 12.1c0 .1.1.1.2.2.1 0 .2 0 .2-.1l9.2-12.9v.4c.1 1.7 1.7 4.9 7 4.9 3.1 0 5.1-.9 6.4-1.9l-.3 1.3v.2c0 .1.1.1.2.1h49c.1 0 .2-.1.2-.2l1.9-9.1h2.5c.1 0 .2-.1.2-.2l1.7-7.5z"/>
   </g>
<defs>
<filter id="filter0_d" x="0.758789" y="9.5" width="229.171" height="36.7402" filterUnits="userSpaceOnUse" color-interpolation-filters="sRGB">
<feFlood flood-opacity="0" result="BackgroundImageFix"/>
<feColorMatrix in="SourceAlpha" type="matrix" values="0 0 0 0 0 0 0 0 0 0 0 0 0 0 0 0 0 0 127 0"/>
<feOffset dy="4"/>
<feGaussianBlur stdDeviation="2"/>
<feColorMatrix type="matrix" values="0 0 0 0 0 0 0 0 0 0 0 0 0 0 0 0 0 0 0.25 0"/>
<feBlend mode="normal" in2="BackgroundImageFix" result="effect1_dropShadow"/>
<feBlend mode="normal" in="SourceGraphic" in2="effect1_dropShadow" result="shape"/>
</filter>
</defs>
</svg>
